<svg width="104" height="104" viewBox="0 0 104 104" fill="none" xmlns="http://www.w3.org/2000/svg">
<g id="akar-icons:more-horizontal">
<g id="Group">
<path id="Vector" d="M17.3333 56.3334C19.7266 56.3334 21.6667 54.3933 21.6667 52C21.6667 49.6068 19.7266 47.6667 17.3333 47.6667C14.9401 47.6667 13 49.6068 13 52C13 54.3933 14.9401 56.3334 17.3333 56.3334Z" fill="#A79FA6"/>
<path id="Vector_2" d="M52 56.3334C54.3932 56.3334 56.3333 54.3933 56.3333 52C56.3333 49.6068 54.3932 47.6667 52 47.6667C49.6067 47.6667 47.6666 49.6068 47.6666 52C47.6666 54.3933 49.6067 56.3334 52 56.3334Z" fill="#A79FA6"/>
<path id="Vector_3" d="M86.6667 56.3334C89.0599 56.3334 91 54.3933 91 52C91 49.6068 89.0599 47.6667 86.6667 47.6667C84.2735 47.6667 82.3334 49.6068 82.3334 52C82.3334 54.3933 84.2735 56.3334 86.6667 56.3334Z" fill="#0390A0"/>
</g>
</g>
</svg>
