<svg width="28" height="28" viewBox="0 0 28 28" fill="none" xmlns="http://www.w3.org/2000/svg">
<path d="M14 1.75C7.23516 1.75 1.75 7.23516 1.75 14C1.75 20.7648 7.23516 26.25 14 26.25C20.7648 26.25 26.25 20.7648 26.25 14C26.25 7.23516 20.7648 1.75 14 1.75ZM19.8871 10.984C19.8953 11.1125 19.8953 11.2465 19.8953 11.3777C19.8953 15.3918 16.8383 20.0156 11.252 20.0156C9.5293 20.0156 7.93242 19.5152 6.58711 18.6539C6.8332 18.6812 7.06836 18.6922 7.31992 18.6922C8.7418 18.6922 10.0488 18.2109 11.0906 17.3961C9.75625 17.3688 8.63516 16.4938 8.25234 15.2906C8.71992 15.359 9.14102 15.359 9.62227 15.2359C8.93519 15.0963 8.31763 14.7232 7.8745 14.1799C7.43137 13.6366 7.19 12.9566 7.19141 12.2555V12.2172C7.59336 12.4441 8.06641 12.5836 8.56133 12.6027C8.14527 12.3255 7.80406 11.9498 7.56796 11.5091C7.33186 11.0683 7.20815 10.5762 7.20781 10.0762C7.20781 9.51016 7.35547 8.99336 7.6207 8.54492C8.38333 9.48373 9.33497 10.2516 10.4138 10.7985C11.4926 11.3454 12.6744 11.6592 13.8824 11.7195C13.4531 9.65508 14.9953 7.98438 16.8492 7.98438C17.7242 7.98438 18.5117 8.35078 19.0668 8.94141C19.7531 8.81289 20.4094 8.55586 20.9945 8.21133C20.7676 8.91406 20.2918 9.50742 19.6602 9.88203C20.2727 9.81641 20.8633 9.64688 21.4102 9.40898C20.9973 10.016 20.4805 10.5547 19.8871 10.984Z" fill="#201F1F"/>
</svg>
