<svg width="40" height="40" viewBox="0 0 40 40" fill="none" xmlns="http://www.w3.org/2000/svg">
<g id="carbon:add-filled">
<path id="Vector" d="M20 2.5C15.3761 2.5561 10.9575 4.41786 7.68766 7.68766C4.41786 10.9575 2.5561 15.3761 2.5 20C2.5561 24.6239 4.41786 29.0425 7.68766 32.3123C10.9575 35.5821 15.3761 37.4439 20 37.5C24.6239 37.4439 29.0425 35.5821 32.3123 32.3123C35.5821 29.0425 37.4439 24.6239 37.5 20C37.4439 15.3761 35.5821 10.9575 32.3123 7.68766C29.0425 4.41786 24.6239 2.5561 20 2.5ZM30 21.25H21.25V30H18.75V21.25H10V18.75H18.75V10H21.25V18.75H30V21.25Z" fill="#007A87"/>
</g>
</svg>
