<svg width="29" height="28" viewBox="0 0 29 28" fill="none" xmlns="http://www.w3.org/2000/svg">
<g id="carbon:home">
<path id="Vector" d="M15.0355 1.93724C14.8802 1.8162 14.689 1.75046 14.4921 1.75046C14.2953 1.75046 14.104 1.8162 13.9487 1.93724L1.375 11.7416L2.46263 13.1171L4 11.9184V22.75C4.00092 23.2138 4.1856 23.6584 4.51358 23.9864C4.84157 24.3144 5.28616 24.4991 5.75 24.5H23.25C23.7138 24.4991 24.1584 24.3144 24.4864 23.9864C24.8144 23.6584 24.9991 23.2138 25 22.75V11.9262L26.5374 13.125L27.625 11.7495L15.0355 1.93724ZM16.25 22.75H12.75V15.75H16.25V22.75ZM18 22.75V15.75C17.9995 15.286 17.815 14.8412 17.4869 14.5131C17.1588 14.185 16.714 14.0005 16.25 14H12.75C12.286 14.0005 11.8412 14.185 11.5131 14.5131C11.185 14.8412 11.0005 15.286 11 15.75V22.75H5.75V10.5542L14.5 3.73799L23.25 10.563V22.75H18Z" fill="#FAC748"/>
</g>
</svg>
