<svg width="28" height="28" viewBox="0 0 28 28" fill="none" xmlns="http://www.w3.org/2000/svg">
<g id="entypo-social:linkedin-with-circle" clip-path="url(#clip0_2271_2487)">
<path id="Vector" d="M14.0001 0.560059C6.57726 0.560059 0.560059 6.57726 0.560059 14.0001C0.560059 21.4229 6.57726 27.4401 14.0001 27.4401C21.4229 27.4401 27.4401 21.4229 27.4401 14.0001C27.4401 6.57726 21.4229 0.560059 14.0001 0.560059ZM10.7101 19.5707H7.98846V10.8123H10.7101V19.5707ZM9.33246 9.73706C8.47286 9.73706 7.91706 9.12806 7.91706 8.37486C7.91706 7.60626 8.48966 7.01546 9.36746 7.01546C10.2453 7.01546 10.7829 7.60626 10.7997 8.37486C10.7997 9.12806 10.2453 9.73706 9.33246 9.73706ZM20.6501 19.5707H17.9285V14.7169C17.9285 13.5871 17.5337 12.8199 16.5495 12.8199C15.7977 12.8199 15.3511 13.3393 15.1537 13.8391C15.0809 14.0169 15.0627 14.2689 15.0627 14.5195V19.5693H12.3397V13.6053C12.3397 12.5119 12.3047 11.5977 12.2683 10.8109H14.6329L14.7575 12.0275H14.8121C15.1705 11.4563 16.0483 10.6135 17.5169 10.6135C19.3075 10.6135 20.6501 11.8133 20.6501 14.3921V19.5707Z" fill="#201F1F"/>
</g>
<defs>
<clipPath id="clip0_2271_2487">
<rect width="28" height="28" fill="white"/>
</clipPath>
</defs>
</svg>
