<svg width="22" height="22" viewBox="0 0 22 22" fill="none" xmlns="http://www.w3.org/2000/svg">
<g id="Group">
<path id="Vector" d="M11 16V16.01M2 11C2 12.1819 2.23279 13.3522 2.68508 14.4442C3.13738 15.5361 3.80031 16.5282 4.63604 17.364C5.47177 18.1997 6.46392 18.8626 7.55585 19.3149C8.64778 19.7672 9.8181 20 11 20C12.1819 20 13.3522 19.7672 14.4442 19.3149C15.5361 18.8626 16.5282 18.1997 17.364 17.364C18.1997 16.5282 18.8626 15.5361 19.3149 14.4442C19.7672 13.3522 20 12.1819 20 11C20 9.8181 19.7672 8.64778 19.3149 7.55585C18.8626 6.46392 18.1997 5.47177 17.364 4.63604C16.5282 3.80031 15.5361 3.13738 14.4442 2.68508C13.3522 2.23279 12.1819 2 11 2C9.8181 2 8.64778 2.23279 7.55585 2.68508C6.46392 3.13738 5.47177 3.80031 4.63604 4.63604C3.80031 5.47177 3.13738 6.46392 2.68508 7.55585C2.23279 8.64778 2 9.8181 2 11Z" stroke="#201F1F" stroke-width="2.5" stroke-linecap="round" stroke-linejoin="round"/>
<path id="Vector_2" d="M11 12.4999C10.9816 12.1753 11.0692 11.8535 11.2495 11.5829C11.4299 11.3124 11.6933 11.1078 12 10.9999C12.3759 10.8562 12.7132 10.6272 12.9856 10.3309C13.2579 10.0346 13.4577 9.67914 13.5693 9.29251C13.6809 8.90588 13.7013 8.49861 13.6287 8.10279C13.5562 7.70696 13.3928 7.33337 13.1513 7.01144C12.9099 6.6895 12.597 6.42801 12.2373 6.24754C11.8776 6.06707 11.4809 5.97256 11.0785 5.97145C10.6761 5.97033 10.2789 6.06264 9.91824 6.24111C9.55756 6.41958 9.24323 6.67933 9 6.99992" stroke="#201F1F" stroke-width="2.5" stroke-linecap="round" stroke-linejoin="round"/>
</g>
</svg>
