<svg width="28" height="28" viewBox="0 0 28 28" fill="none" xmlns="http://www.w3.org/2000/svg">
<g id="mage:instagram-circle">
<path id="Vector" d="M15.8783 14.2836C15.8712 14.6532 15.7546 15.0123 15.5432 15.3156C15.3318 15.6188 15.0351 15.8524 14.6908 15.9869C14.3464 16.1213 13.9699 16.1505 13.609 16.0707C13.2481 15.9909 12.9189 15.8057 12.6634 15.5387C12.4078 15.2716 12.2372 14.9347 12.1734 14.5706C12.1095 14.2065 12.1551 13.8317 12.3045 13.4935C12.4539 13.1554 12.7004 12.8693 13.0126 12.6714C13.3248 12.4735 13.6887 12.3727 14.0583 12.3819C14.5493 12.4001 15.014 12.6088 15.3537 12.9638C15.6935 13.3188 15.8816 13.7922 15.8783 14.2836Z" fill="#201F1F"/>
<path id="Vector_2" d="M17.2235 8.43848H10.8943C10.268 8.43848 9.66741 8.68726 9.22458 9.1301C8.78174 9.57293 8.53296 10.1735 8.53296 10.7998V17.2713C8.53296 17.5814 8.59404 17.8885 8.7127 18.175C8.83137 18.4614 9.00531 18.7218 9.22458 18.941C9.44385 19.1603 9.70416 19.3342 9.99065 19.4529C10.2771 19.5716 10.5842 19.6326 10.8943 19.6326H17.2235C17.5336 19.6326 17.8406 19.5716 18.1271 19.4529C18.4136 19.3342 18.6739 19.1603 18.8932 18.941C19.1124 18.7218 19.2864 18.4614 19.405 18.175C19.5237 17.8885 19.5848 17.5814 19.5848 17.2713V10.8115C19.586 10.5005 19.5259 10.1923 19.4078 9.90461C19.2897 9.61691 19.116 9.35535 18.8966 9.1349C18.6773 8.91446 18.4166 8.73947 18.1294 8.61996C17.8423 8.50045 17.5345 8.43878 17.2235 8.43848ZM14.0583 17.4486C13.4318 17.4628 12.8152 17.2899 12.2873 16.9521C11.7595 16.6143 11.3442 16.1269 11.0946 15.5521C10.845 14.9772 10.7723 14.341 10.8858 13.7247C10.9993 13.1084 11.2939 12.5399 11.732 12.0917C12.17 11.6435 12.7317 11.336 13.3453 11.2085C13.9588 11.0809 14.5965 11.1391 15.1769 11.3755C15.7573 11.6119 16.2541 12.016 16.6038 12.536C16.9536 13.056 17.1405 13.6684 17.1406 14.2951C17.1454 14.7046 17.0695 15.111 16.9171 15.4911C16.7648 15.8713 16.539 16.2176 16.2528 16.5105C15.9666 16.8033 15.6254 17.0369 15.2489 17.1979C14.8723 17.3589 14.4678 17.4441 14.0583 17.4486ZM17.4836 11.1428C17.4066 11.1428 17.3304 11.1275 17.2595 11.0977C17.1885 11.0679 17.1242 11.0242 17.0703 10.9692C17.0164 10.9142 16.974 10.8491 16.9456 10.7775C16.9172 10.7059 16.9034 10.6294 16.905 10.5525C16.905 10.3959 16.9672 10.2458 17.0779 10.135C17.1886 10.0243 17.3387 9.96214 17.4953 9.96214C17.6519 9.96214 17.802 10.0243 17.9127 10.135C18.0234 10.2458 18.0856 10.3959 18.0856 10.5525C18.0879 10.6358 18.0722 10.7187 18.0395 10.7954C18.0069 10.8721 17.958 10.9408 17.8963 10.9969C17.8346 11.0529 17.7615 11.095 17.682 11.1202C17.6025 11.1454 17.5185 11.1531 17.4358 11.1428H17.4836Z" fill="#201F1F"/>
<path id="Vector_3" d="M14.0584 2.33315C10.9642 2.31768 7.9906 3.53201 5.79173 5.70899C3.59287 7.88598 2.34887 10.8473 2.3334 13.9415C2.31793 17.0357 3.53225 20.0093 5.70924 22.2082C7.88622 24.407 10.8475 25.651 13.9417 25.6665C15.4738 25.6741 16.9924 25.38 18.4108 24.8007C19.8292 24.2215 21.1196 23.3686 22.2084 22.2906C23.2972 21.2127 24.163 19.9309 24.7563 18.5184C25.3497 17.1058 25.6591 15.5902 25.6667 14.0582C25.6744 12.5261 25.3802 11.0075 24.801 9.58907C24.2218 8.17068 23.3688 6.88026 22.2909 5.79149C21.213 4.70272 19.9311 3.83693 18.5186 3.24355C17.1061 2.65017 15.5905 2.34081 14.0584 2.33315ZM21.1436 17.1522C21.1468 17.6756 21.0461 18.1944 20.8474 18.6786C20.6486 19.1628 20.3557 19.6028 19.9857 19.9729C19.6156 20.3431 19.1757 20.6361 18.6916 20.835C18.2075 21.0339 17.6886 21.1348 17.1652 21.1317H10.9539C10.4306 21.1346 9.91188 21.0337 9.42781 20.8348C8.94374 20.636 8.50393 20.343 8.13383 19.973C7.76373 19.6031 7.47069 19.1633 7.27167 18.6793C7.07265 18.1953 6.97161 17.6766 6.9744 17.1533V10.9408C6.97115 10.4174 7.07182 9.89857 7.27058 9.41436C7.46935 8.93016 7.76225 8.49022 8.1323 8.12005C8.50236 7.74989 8.94221 7.45686 9.42636 7.25795C9.91051 7.05905 10.4293 6.95822 10.9527 6.96132H17.1652C17.6885 6.95822 18.2073 7.05901 18.6913 7.25785C19.1754 7.45668 19.6152 7.7496 19.9852 8.11964C20.3553 8.48969 20.6482 8.92948 20.847 9.41356C21.0459 9.89763 21.1467 10.4163 21.1436 10.9397V17.1522Z" fill="#201F1F"/>
</g>
</svg>
