<svg width="61" height="60" viewBox="0 0 61 60" fill="none" xmlns="http://www.w3.org/2000/svg">
<path d="M8.625 24.125C8.33333 23.9167 8.15583 23.6567 8.0925 23.345C8.02916 23.0333 8.12333 22.71 8.375 22.375C10.9583 18.8333 14.1983 16.0833 18.095 14.125C21.9917 12.1667 26.1475 11.1875 30.5625 11.1875C34.9792 11.1875 39.1458 12.1358 43.0625 14.0325C46.9792 15.9292 50.25 18.6683 52.875 22.25C53.1667 22.625 53.2608 22.9583 53.1575 23.25C53.0542 23.5417 52.8767 23.7917 52.625 24C52.375 24.2083 52.0833 24.3025 51.75 24.2825C51.4167 24.2625 51.125 24.085 50.875 23.75C48.5833 20.5 45.6358 18.0108 42.0325 16.2825C38.4292 14.5542 34.6058 13.6892 30.5625 13.6875C26.5208 13.6875 22.7292 14.5525 19.1875 16.2825C15.6458 18.0125 12.7083 20.5017 10.375 23.75C10.125 24.125 9.83333 24.3333 9.5 24.375C9.16666 24.4167 8.875 24.3333 8.625 24.125ZM37.625 54.9375C33.2917 53.8542 29.75 51.6975 27 48.4675C24.25 45.2375 22.875 41.29 22.875 36.625C22.875 34.5417 23.625 32.7917 25.125 31.375C26.625 29.9583 28.4375 29.25 30.5625 29.25C32.6875 29.25 34.5 29.9583 36 31.375C37.5 32.7917 38.25 34.5417 38.25 36.625C38.25 38 38.7708 39.1567 39.8125 40.095C40.8542 41.0333 42.0833 41.5017 43.5 41.5C44.9167 41.5 46.125 41.0317 47.125 40.095C48.125 39.1583 48.625 38.0017 48.625 36.625C48.625 31.7917 46.8542 27.7292 43.3125 24.4375C39.7708 21.1458 35.5417 19.5 30.625 19.5C25.7083 19.5 21.4792 21.1458 17.9375 24.4375C14.3958 27.7292 12.625 31.7708 12.625 36.5625C12.625 37.5625 12.7192 38.8125 12.9075 40.3125C13.0958 41.8125 13.5433 43.5625 14.25 45.5625C14.375 45.9375 14.365 46.2708 14.22 46.5625C14.075 46.8542 13.835 47.0625 13.5 47.1875C13.1667 47.3125 12.8442 47.3025 12.5325 47.1575C12.2208 47.0125 12.0017 46.7725 11.875 46.4375C11.25 44.8125 10.8025 43.1983 10.5325 41.595C10.2625 39.9917 10.1267 38.335 10.125 36.625C10.125 31.0833 12.1358 26.4375 16.1575 22.6875C20.1792 18.9375 24.9808 17.0625 30.5625 17.0625C36.1875 17.0625 41.0208 18.9375 45.0625 22.6875C49.1042 26.4375 51.125 31.0833 51.125 36.625C51.125 38.7083 50.3858 40.4475 48.9075 41.8425C47.4292 43.2375 45.6267 43.9358 43.5 43.9375C41.375 43.9375 39.5525 43.24 38.0325 41.845C36.5125 40.45 35.7517 38.71 35.75 36.625C35.75 35.25 35.24 34.0933 34.22 33.155C33.2 32.2167 31.9808 31.7483 30.5625 31.75C29.1458 31.75 27.9267 32.2192 26.905 33.1575C25.8833 34.0958 25.3733 35.2517 25.375 36.625C25.375 40.6667 26.5733 44.0417 28.97 46.75C31.3667 49.4583 34.46 51.3542 38.25 52.4375C38.625 52.5625 38.875 52.7708 39 53.0625C39.125 53.3542 39.1458 53.6667 39.0625 54C38.9792 54.2917 38.8125 54.5417 38.5625 54.75C38.3125 54.9583 38 55.0208 37.625 54.9375ZM16.75 11.0625C16.4167 11.2708 16.0833 11.3233 15.75 11.22C15.4167 11.1167 15.1667 10.8975 15 10.5625C14.8333 10.2292 14.7917 9.9275 14.875 9.6575C14.9583 9.3875 15.1667 9.1475 15.5 8.9375C17.8333 7.6875 20.2708 6.72917 22.8125 6.0625C25.3542 5.39583 27.9375 5.0625 30.5625 5.0625C33.2292 5.0625 35.8333 5.38583 38.375 6.0325C40.9167 6.67917 43.375 7.60583 45.75 8.8125C46.125 9.02083 46.3442 9.27083 46.4075 9.5625C46.4708 9.85417 46.4392 10.1458 46.3125 10.4375C46.1875 10.7292 45.9792 10.9583 45.6875 11.125C45.3958 11.2917 45.0417 11.2708 44.625 11.0625C42.4167 9.9375 40.135 9.07333 37.78 8.47C35.425 7.86667 33.0192 7.56417 30.5625 7.5625C28.1458 7.5625 25.7708 7.84417 23.4375 8.4075C21.1042 8.97083 18.875 9.85583 16.75 11.0625ZM24.125 54.0625C21.6667 51.4792 19.7817 48.8442 18.47 46.1575C17.1583 43.4708 16.5017 40.2933 16.5 36.625C16.5 32.8333 17.875 29.635 20.625 27.03C23.375 24.425 26.6875 23.1233 30.5625 23.125C34.4375 23.125 37.7708 24.4275 40.5625 27.0325C43.3542 29.6375 44.75 32.835 44.75 36.625C44.75 37 44.6358 37.3025 44.4075 37.5325C44.1792 37.7625 43.8767 37.8767 43.5 37.875C43.1667 37.875 42.875 37.7608 42.625 37.5325C42.375 37.3042 42.25 37.0017 42.25 36.625C42.25 33.5 41.0933 30.8858 38.78 28.7825C36.4667 26.6792 33.7275 25.6267 30.5625 25.625C27.3958 25.625 24.6775 26.6775 22.4075 28.7825C20.1375 30.8875 19.0017 33.5017 19 36.625C19 40 19.5833 42.865 20.75 45.22C21.9167 47.575 23.625 49.9392 25.875 52.3125C26.125 52.5625 26.25 52.8542 26.25 53.1875C26.25 53.5208 26.125 53.8125 25.875 54.0625C25.625 54.3125 25.3333 54.4375 25 54.4375C24.6667 54.4375 24.375 54.3125 24.125 54.0625ZM43 49.8125C39.2917 49.8125 36.0725 48.5625 33.3425 46.0625C30.6125 43.5625 29.2483 40.4167 29.25 36.625C29.25 36.2917 29.365 36 29.595 35.75C29.825 35.5 30.1267 35.375 30.5 35.375C30.875 35.375 31.1775 35.5 31.4075 35.75C31.6375 36 31.7517 36.2917 31.75 36.625C31.75 39.75 32.875 42.3125 35.125 44.3125C37.375 46.3125 40 47.3125 43 47.3125C43.25 47.3125 43.6042 47.2917 44.0625 47.25C44.5208 47.2083 45 47.1458 45.5 47.0625C45.875 46.9792 46.1983 47.0317 46.47 47.22C46.7417 47.4083 46.9183 47.6892 47 48.0625C47.0833 48.3958 47.0208 48.6875 46.8125 48.9375C46.6042 49.1875 46.3333 49.3542 46 49.4375C45.25 49.6458 44.5942 49.7608 44.0325 49.7825C43.4708 49.8042 43.1267 49.8142 43 49.8125Z" fill="#989494"/>
</svg>
