<svg width="151" height="77" viewBox="0 0 151 77" fill="none" xmlns="http://www.w3.org/2000/svg">
<path d="M16.1464 67.3196L25.6697 43.146H29.0009L32.2929 76.0623H28.6874L26.2184 51.3153L17.7924 72.4315H14.5788L6.07451 51.3153L3.60551 76.0623H0L3.29199 43.146H6.62317L16.1464 67.3196Z" fill="white"/>
<path d="M39.5327 63.1633H50.8979C50.4668 59.3892 48.3113 57.1916 45.3328 57.1916C42.3152 57.1916 39.9638 59.3892 39.5327 63.1633ZM54.425 64.8354C54.425 65.3609 54.425 66.0298 54.3858 66.5553H39.5327C39.9638 70.3294 42.3152 72.6226 45.4504 72.6226C47.6451 72.6226 49.6438 71.4282 50.7019 69.1828C51.6425 69.7084 52.779 70.0906 53.7588 70.6161C52.1912 74.5813 48.8992 76.54 45.3328 76.54C40.1205 76.54 35.9664 71.906 35.9664 64.8354C35.9664 57.7648 40.1205 53.2741 45.3328 53.2741C50.5452 53.2741 54.425 57.7648 54.425 64.8354Z" fill="white"/>
<path d="M73.4192 76.0623V72.6226C72.2043 75.1068 69.5393 76.54 66.992 76.54C61.9756 76.54 57.743 71.9537 57.743 64.8832C57.743 57.7648 61.9364 53.2741 66.9528 53.2741C69.6569 53.2741 72.2043 54.564 73.4192 57.096L76.9855 0.420044V41.6172V76.0623H73.4192ZM73.38 64.8354C73.38 60.058 70.284 57.526 67.3055 57.526C64.0135 57.526 61.3877 60.4402 61.3877 64.8354C61.3877 69.2306 64.0135 72.2882 67.3055 72.2882C70.5583 72.2882 73.38 69.565 73.38 64.8354Z" fill="white"/>
<path d="M87.3045 0.420044H83.6598L87.3045 71.906H98.317V76.0623H83.6598L87.3045 0.420044Z" fill="white"/>
<path d="M105.885 53.7518V76.0623H102.358V53.7518H105.885ZM101.653 45.5347C101.653 43.8626 102.75 42.716 104.122 42.716C105.493 42.716 106.591 43.8626 106.591 45.5347C106.591 47.2068 105.493 48.3533 104.122 48.3533C102.75 48.3533 101.653 47.2068 101.653 45.5347Z" fill="white"/>
<path d="M115.416 64.0232V76.0623H111.85V53.7518H115.416V57.096C116.474 54.4207 119.139 53.2741 121.138 53.2741C125.723 53.2741 128.192 56.8571 128.192 63.1633V76.0623H124.626V63.45C124.626 59.6758 123.097 57.526 120.589 57.526C118.003 57.526 115.416 59.2936 115.416 64.0232Z" fill="white"/>
<path d="M137.46 65.1698V76.0623H133.932V41.6172H137.46V61.539L143.769 53.7518H148.629L140.791 63.4022L150.51 76.0623H145.807L137.46 65.1698Z" fill="white"/>
</svg>
