<svg width="25" height="24" viewBox="0 0 25 24" fill="none" xmlns="http://www.w3.org/2000/svg">
<g id="mingcute:right-line" clip-path="url(#clip0_2172_2285)">
<g id="Group">
<path id="Vector" fill-rule="evenodd" clip-rule="evenodd" d="M16.2073 11.2929C16.3948 11.4805 16.5001 11.7348 16.5001 11.9999C16.5001 12.2651 16.3948 12.5194 16.2073 12.7069L10.5503 18.3639C10.4581 18.4594 10.3478 18.5356 10.2257 18.588C10.1037 18.6404 9.97252 18.668 9.83974 18.6692C9.70696 18.6703 9.57529 18.645 9.45239 18.5948C9.32949 18.5445 9.21784 18.4702 9.12395 18.3763C9.03006 18.2824 8.9558 18.1708 8.90552 18.0479C8.85524 17.925 8.82994 17.7933 8.83109 17.6605C8.83225 17.5278 8.85983 17.3965 8.91224 17.2745C8.96465 17.1525 9.04083 17.0422 9.13634 16.9499L14.0863 11.9999L9.13634 7.04994C8.95418 6.86133 8.85339 6.60873 8.85567 6.34653C8.85795 6.08434 8.96312 5.83353 9.14852 5.64812C9.33393 5.46271 9.58474 5.35754 9.84694 5.35526C10.1091 5.35298 10.3617 5.45378 10.5503 5.63594L16.2073 11.2929Z" fill="white"/>
</g>
</g>
<defs>
<clipPath id="clip0_2172_2285">
<rect width="24" height="24" fill="white" transform="translate(0.5)"/>
</clipPath>
</defs>
</svg>
