<svg width="29" height="28" viewBox="0 0 29 28" fill="none" xmlns="http://www.w3.org/2000/svg">
<g id="mingcute:more-1-fill" clip-path="url(#clip0_2172_2220)">
<g id="Group">
<path id="Vector" d="M6.33333 11.6667C6.95217 11.6667 7.54566 11.9125 7.98325 12.3501C8.42083 12.7877 8.66667 13.3812 8.66667 14C8.66667 14.6188 8.42083 15.2123 7.98325 15.6499C7.54566 16.0875 6.95217 16.3333 6.33333 16.3333C5.71449 16.3333 5.121 16.0875 4.68342 15.6499C4.24583 15.2123 4 14.6188 4 14C4 13.3812 4.24583 12.7877 4.68342 12.3501C5.121 11.9125 5.71449 11.6667 6.33333 11.6667ZM14.5 11.6667C15.1188 11.6667 15.7123 11.9125 16.1499 12.3501C16.5875 12.7877 16.8333 13.3812 16.8333 14C16.8333 14.6188 16.5875 15.2123 16.1499 15.6499C15.7123 16.0875 15.1188 16.3333 14.5 16.3333C13.8812 16.3333 13.2877 16.0875 12.8501 15.6499C12.4125 15.2123 12.1667 14.6188 12.1667 14C12.1667 13.3812 12.4125 12.7877 12.8501 12.3501C13.2877 11.9125 13.8812 11.6667 14.5 11.6667ZM22.6667 11.6667C23.2855 11.6667 23.879 11.9125 24.3166 12.3501C24.7542 12.7877 25 13.3812 25 14C25 14.6188 24.7542 15.2123 24.3166 15.6499C23.879 16.0875 23.2855 16.3333 22.6667 16.3333C22.0478 16.3333 21.4543 16.0875 21.0168 15.6499C20.5792 15.2123 20.3333 14.6188 20.3333 14C20.3333 13.3812 20.5792 12.7877 21.0168 12.3501C21.4543 11.9125 22.0478 11.6667 22.6667 11.6667Z" fill="white"/>
</g>
</g>
<defs>
<clipPath id="clip0_2172_2220">
<rect width="28" height="28" fill="white" transform="translate(0.5)"/>
</clipPath>
</defs>
</svg>
