<svg width="25" height="24" viewBox="0 0 25 24" fill="none" xmlns="http://www.w3.org/2000/svg">
<g id="mingcute:right-line" clip-path="url(#clip0_2172_2300)">
<g id="Group">
<path id="Vector" fill-rule="evenodd" clip-rule="evenodd" d="M16.2073 11.2931C16.3948 11.4806 16.5001 11.7349 16.5001 12.0001C16.5001 12.2652 16.3948 12.5195 16.2073 12.7071L10.5503 18.3641C10.4581 18.4596 10.3478 18.5358 10.2257 18.5882C10.1037 18.6406 9.97252 18.6682 9.83974 18.6693C9.70696 18.6705 9.57529 18.6452 9.45239 18.5949C9.32949 18.5446 9.21784 18.4703 9.12395 18.3765C9.03006 18.2826 8.9558 18.1709 8.90552 18.048C8.85524 17.9251 8.82994 17.7934 8.83109 17.6607C8.83225 17.5279 8.85983 17.3967 8.91224 17.2747C8.96465 17.1526 9.04083 17.0423 9.13634 16.9501L14.0863 12.0001L9.13634 7.05006C8.95418 6.86146 8.85339 6.60885 8.85567 6.34666C8.85795 6.08446 8.96312 5.83365 9.14852 5.64824C9.33393 5.46283 9.58474 5.35766 9.84694 5.35538C10.1091 5.35311 10.3617 5.4539 10.5503 5.63606L16.2073 11.2931Z" fill="#111111"/>
</g>
</g>
<defs>
<clipPath id="clip0_2172_2300">
<rect width="24" height="24" fill="white" transform="translate(0.5)"/>
</clipPath>
</defs>
</svg>
