<svg width="24" height="25" viewBox="0 0 24 25" fill="none" xmlns="http://www.w3.org/2000/svg">
<g id="ri:blogger-line">
<path id="Vector" d="M3 9.16625C3 7.5723 3.63319 6.04363 4.76029 4.91654C5.88738 3.78944 7.41605 3.15625 9.01 3.15625H12C13.5891 3.15623 15.1136 3.78558 16.2398 4.90663C17.3661 6.02767 18.0026 7.54916 18.01 9.13825H18.953C20.103 9.13825 21 10.0343 21 11.1853V15.1473C21 16.7412 20.3668 18.2699 19.2397 19.397C18.1126 20.5241 16.584 21.1572 14.99 21.1572H9.01C8.22076 21.1572 7.43924 21.0018 6.71007 20.6998C5.98091 20.3977 5.31837 19.955 4.76029 19.397C3.63319 18.2699 3 16.7412 3 15.1473V9.16625ZM9.01 5.15625C8.48332 5.15625 7.96179 5.26 7.47521 5.46159C6.98863 5.66317 6.54652 5.95864 6.17415 6.33111C5.80177 6.70357 5.50642 7.14575 5.30496 7.63238C5.10349 8.11901 4.99987 8.64057 5 9.16725V15.1483C5.00027 16.2116 5.42286 17.2313 6.17486 17.9831C6.92685 18.7349 7.94666 19.1572 9.01 19.1572H14.99C16.0535 19.1572 17.0735 18.7348 17.8255 17.9827C18.5775 17.2307 19 16.2108 19 15.1473V11.1573H18C16.924 11.1573 16 10.2332 16 9.15725C16 6.94325 14.214 5.15725 12 5.15725L9.01 5.15625ZM8 9.15725C8 8.89203 8.10536 8.63768 8.29289 8.45014C8.48043 8.26261 8.73478 8.15725 9 8.15725H12.5C12.7652 8.15725 13.0196 8.26261 13.2071 8.45014C13.3946 8.63768 13.5 8.89203 13.5 9.15725C13.5 9.42247 13.3946 9.67682 13.2071 9.86436C13.0196 10.0519 12.7652 10.1572 12.5 10.1572H9C8.73478 10.1572 8.48043 10.0519 8.29289 9.86436C8.10536 9.67682 8 9.42247 8 9.15725ZM9 14.1573C8.73478 14.1573 8.48043 14.2626 8.29289 14.4501C8.10536 14.6377 8 14.892 8 15.1573C8 15.4225 8.10536 15.6768 8.29289 15.8644C8.48043 16.0519 8.73478 16.1573 9 16.1573H15C15.2652 16.1573 15.5196 16.0519 15.7071 15.8644C15.8946 15.6768 16 15.4225 16 15.1573C16 14.892 15.8946 14.6377 15.7071 14.4501C15.5196 14.2626 15.2652 14.1573 15 14.1573H9Z" fill="#201F1F"/>
</g>
</svg>
