<svg width="29" height="28" viewBox="0 0 29 28" fill="none" xmlns="http://www.w3.org/2000/svg">
<g id="streamline:waiting-appointments-calendar" clip-path="url(#clip0_2172_2205)">
<g id="Group">
<path id="Vector" d="M3.5 4C2.96957 4 2.46086 4.21071 2.08579 4.58579C1.71071 4.96086 1.5 5.46957 1.5 6V25C1.5 25.5304 1.71071 26.0391 2.08579 26.4142C2.46086 26.7893 2.96957 27 3.5 27H25.5C26.0304 27 26.5391 26.7893 26.9142 26.4142C27.2893 26.0391 27.5 25.5304 27.5 25V6C27.5 5.46957 27.2893 4.96086 26.9142 4.58579C26.5391 4.21071 26.0304 4 25.5 4H21.5M7.5 1V7M21.5 1V7M7.5 4H17.5" stroke="white" stroke-width="2" stroke-linecap="round" stroke-linejoin="round"/>
<path id="Vector_2" d="M12.876 9.12399C12.6108 9.12399 12.3564 9.22935 12.1689 9.41689C11.9814 9.60442 11.876 9.85878 11.876 10.124V12.936H9.06C8.79478 12.936 8.54043 13.0414 8.35289 13.2289C8.16535 13.4164 8.06 13.6708 8.06 13.936V17.186C8.06 17.4512 8.16535 17.7056 8.35289 17.8931C8.54043 18.0806 8.79478 18.186 9.06 18.186H11.874V20.998C11.874 21.2632 11.9794 21.5176 12.1669 21.7051C12.3544 21.8926 12.6088 21.998 12.874 21.998H16.124C16.2553 21.998 16.3854 21.9721 16.5067 21.9219C16.628 21.8716 16.7382 21.798 16.8311 21.7051C16.924 21.6122 16.9976 21.502 17.0479 21.3807C17.0981 21.2594 17.124 21.1293 17.124 20.998V18.186H19.936C20.2012 18.186 20.4556 18.0806 20.6431 17.8931C20.8306 17.7056 20.936 17.4512 20.936 17.186V13.936C20.936 13.6708 20.8306 13.4164 20.6431 13.2289C20.4556 13.0414 20.2012 12.936 19.936 12.936H17.126V10.124C17.126 9.85878 17.0206 9.60442 16.8331 9.41689C16.6456 9.22935 16.3912 9.12399 16.126 9.12399H12.876Z" stroke="white" stroke-width="2" stroke-linecap="round" stroke-linejoin="round"/>
</g>
</g>
<defs>
<clipPath id="clip0_2172_2205">
<rect width="28" height="28" fill="white" transform="translate(0.5)"/>
</clipPath>
</defs>
</svg>
