<svg width="20" height="20" viewBox="0 0 20 20" fill="none" xmlns="http://www.w3.org/2000/svg">
<path id="Vector" d="M17.5187 7.74934C17.5187 7.55043 17.4397 7.35966 17.299 7.21901C17.1584 7.07836 16.9676 6.99934 16.7687 6.99934C16.5698 6.99934 16.379 7.07836 16.2384 7.21901C16.0977 7.35966 16.0187 7.55043 16.0187 7.74934H17.5187ZM3.51871 7.74934C3.51871 7.55043 3.43969 7.35966 3.29904 7.21901C3.15839 7.07836 2.96762 6.99934 2.76871 6.99934C2.5698 6.99934 2.37903 7.07836 2.23838 7.21901C2.09773 7.35966 2.01871 7.55043 2.01871 7.74934H3.51871ZM18.2387 10.2793C18.3074 10.353 18.3902 10.4121 18.4822 10.4531C18.5742 10.4941 18.6735 10.5162 18.7742 10.5179C18.8749 10.5197 18.9749 10.5012 19.0683 10.4635C19.1617 10.4257 19.2465 10.3696 19.3177 10.2984C19.389 10.2272 19.4451 10.1423 19.4828 10.0489C19.5206 9.95555 19.5391 9.85552 19.5373 9.75482C19.5355 9.65411 19.5135 9.5548 19.4725 9.4628C19.4315 9.3708 19.3724 9.288 19.2987 9.21934L18.2387 10.2793ZM9.76871 0.74934L10.2987 0.21934C10.1581 0.0788896 9.96746 0 9.76871 0C9.56996 0 9.37933 0.0788896 9.23871 0.21934L9.76871 0.74934ZM0.238708 9.21934C0.165022 9.288 0.105919 9.3708 0.0649275 9.4628C0.0239355 9.5548 0.00189351 9.65411 0.000116721 9.75482C-0.00166006 9.85552 0.0168646 9.95555 0.0545856 10.0489C0.0923066 10.1423 0.148451 10.2272 0.21967 10.2984C0.290889 10.3696 0.375723 10.4257 0.469111 10.4635C0.562499 10.5012 0.662528 10.5197 0.763231 10.5179C0.863934 10.5162 0.963247 10.4941 1.05525 10.4531C1.14725 10.4121 1.23005 10.353 1.29871 10.2793L0.238708 9.21934ZM4.76871 19.4993H14.7687V17.9993H4.76871V19.4993ZM17.5187 16.7493V7.74934H16.0187V16.7493H17.5187ZM3.51871 16.7493V7.74934H2.01871V16.7493H3.51871ZM19.2987 9.21934L10.2987 0.21934L9.23871 1.27934L18.2387 10.2793L19.2987 9.21934ZM9.23871 0.21934L0.238708 9.21934L1.29871 10.2793L10.2987 1.27934L9.23871 0.21934ZM14.7687 19.4993C15.4981 19.4993 16.1975 19.2096 16.7133 18.6939C17.229 18.1782 17.5187 17.4787 17.5187 16.7493H16.0187C16.0187 17.4393 15.4587 17.9993 14.7687 17.9993V19.4993ZM4.76871 17.9993C4.07871 17.9993 3.51871 17.4393 3.51871 16.7493H2.01871C2.01871 17.4787 2.30844 18.1782 2.82416 18.6939C3.33989 19.2096 4.03936 19.4993 4.76871 19.4993V17.9993Z" fill="#201F1F"/>
</svg>
